<svg xmlns="http://www.w3.org/2000/svg" width="467" height="195" viewBox="0 0 467 195" role="img" aria-labelledby="title desc">
  <title id="title">BohdanRykush contribution statistics</title>
  <desc id="desc">1,010 contributions in the last year, including 979 anonymized private contributions.</desc>
  <style>
    .title { fill: #c9d1d9; font: 600 18px "Segoe UI", Ubuntu, sans-serif; }
    .label { fill: #8b949e; font: 600 14px "Segoe UI", Ubuntu, sans-serif; }
    .value { fill: #c9d1d9; font: 700 14px "Segoe UI", Ubuntu, sans-serif; }
    .percent { fill: #c9d1d9; font: 700 23px "Segoe UI", Ubuntu, sans-serif; }
    .caption { fill: #8b949e; font: 400 12px "Segoe UI", Ubuntu, sans-serif; }
  </style>
  <rect x="0.5" y="0.5" width="466" height="194" rx="8" fill="#0d1117" stroke="#0d1117"/>
  <text class="title" x="25" y="35">Contribution Activity</text>

  <g transform="translate(25 62)">
    <circle cx="5" cy="-4" r="4" fill="#38bdf8"/>
    <text class="label" x="18" y="0">Total contributions (last year):</text>
    <text class="value" x="248" y="0" text-anchor="end">1,010</text>
  </g>
  <g transform="translate(25 91)">
    <circle cx="5" cy="-4" r="4" fill="#0ea5e9"/>
    <text class="label" x="18" y="0">Private contributions:</text>
    <text class="value" x="248" y="0" text-anchor="end">979</text>
  </g>
  <g transform="translate(25 120)">
    <circle cx="5" cy="-4" r="4" fill="#155e8a"/>
    <text class="label" x="18" y="0">Public contributions:</text>
    <text class="value" x="248" y="0" text-anchor="end">31</text>
  </g>
  <g transform="translate(25 149)">
    <circle cx="5" cy="-4" r="4" fill="#0e2438"/>
    <text class="label" x="18" y="0">Active days:</text>
    <text class="value" x="248" y="0" text-anchor="end">125</text>
  </g>

  <g transform="translate(371 94) rotate(-90)">
    <circle cx="0" cy="0" r="40" fill="none" stroke="#161b22" stroke-width="7"/>
    <circle cx="0" cy="0" r="40" fill="none" stroke="#38bdf8" stroke-width="7" stroke-linecap="round"
      stroke-dasharray="243.61 251.33"/>
  </g>
  <text class="percent" x="371" y="101" text-anchor="middle">97%</text>
  <text class="caption" x="371" y="151" text-anchor="middle">private activity</text>
  <text class="caption" x="371" y="170" text-anchor="middle">best day: 40</text>
</svg>
